<?xml version="1.0" encoding="UTF-8" standalone="no"?>
<!-- Created with Inkscape (http://www.inkscape.org/) -->

<svg
   xmlns:dc="http://purl.org/dc/elements/1.1/"
   xmlns:cc="http://creativecommons.org/ns#"
   xmlns:rdf="http://www.w3.org/1999/02/22-rdf-syntax-ns#"
   xmlns:svg="http://www.w3.org/2000/svg"
   xmlns="http://www.w3.org/2000/svg"
   xmlns:sodipodi="http://sodipodi.sourceforge.net/DTD/sodipodi-0.dtd"
   xmlns:inkscape="http://www.inkscape.org/namespaces/inkscape"
   width="3.3072917mm"
   height="7.4634571mm"
   viewBox="0 0 11.71875 26.44532"
   id="svg2"
   version="1.1"
   inkscape:version="0.91 r13725"
   sodipodi:docname="arrow.svg"
   inkscape:export-filename="C:\Users\Martin\Documents\Ülikool\4. Semester\Veebirakendus\Website\img\arrow.png"
   inkscape:export-xdpi="90"
   inkscape:export-ydpi="90">
  <defs
     id="defs4" />
  <sodipodi:namedview
     id="base"
     pagecolor="#ffffff"
     bordercolor="#666666"
     borderopacity="1.0"
     inkscape:pageopacity="0.0"
     inkscape:pageshadow="2"
     inkscape:zoom="0.98994949"
     inkscape:cx="-103.03862"
     inkscape:cy="-53.285242"
     inkscape:document-units="px"
     inkscape:current-layer="layer1"
     showgrid="false"
     inkscape:window-width="1600"
     inkscape:window-height="837"
     inkscape:window-x="-8"
     inkscape:window-y="-8"
     inkscape:window-maximized="1"
     fit-margin-top="0"
     fit-margin-left="0"
     fit-margin-right="0"
     fit-margin-bottom="0" />
  <metadata
     id="metadata7">
    <rdf:RDF>
      <cc:Work
         rdf:about="">
        <dc:format>image/svg+xml</dc:format>
        <dc:type
           rdf:resource="http://purl.org/dc/dcmitype/StillImage" />
        <dc:title></dc:title>
      </cc:Work>
    </rdf:RDF>
  </metadata>
  <g
     inkscape:label="Layer 1"
     inkscape:groupmode="layer"
     id="layer1"
     transform="translate(-265.20117,-354.86523)">
    <path
       sodipodi:type="inkscape:offset"
       inkscape:radius="0"
       inkscape:original="M 270.10352 354.86523 C 269.30924 355.50325 268.60611 356.23242 267.99414 357.05273 C 267.38216 357.87305 266.86784 358.75846 266.45117 359.70898 C 266.04753 360.64648 265.73503 361.62956 265.51367 362.6582 C 265.30534 363.68685 265.20117 364.72852 265.20117 365.7832 C 265.20117 367.13737 265.35091 368.44596 265.65039 369.70898 C 265.96289 370.95898 266.42514 372.13086 267.03711 373.22461 C 267.64909 374.31836 268.41081 375.30795 269.32227 376.19336 C 270.23373 377.07878 271.30143 377.81445 272.52539 378.40039 L 266.8418 379.45508 L 267.03711 381.31055 L 276.11914 380.56836 L 276.91992 379.47461 L 276.86133 370.93945 L 275.08398 370.8418 L 274.10742 376.81836 C 273.0918 376.24545 272.19987 375.58138 271.43164 374.82617 C 270.67643 374.05794 270.04492 373.22461 269.53711 372.32617 C 269.0293 371.41471 268.64519 370.45117 268.38477 369.43555 C 268.13737 368.4069 268.01367 367.33919 268.01367 366.23242 C 268.01367 365.32096 268.11133 364.42253 268.30664 363.53711 C 268.51497 362.6517 268.80795 361.80534 269.18555 360.99805 C 269.56315 360.19075 270.01888 359.43554 270.55273 358.73242 C 271.09961 358.01628 271.71159 357.37175 272.38867 356.79883 L 270.10352 354.86523 z "
       style="font-style:normal;font-weight:normal;font-size:medium;line-height:125%;font-family:sans-serif;letter-spacing:0px;word-spacing:0px;fill:#000000;fill-opacity:1;stroke:none;stroke-width:1px;stroke-linecap:butt;stroke-linejoin:miter;stroke-opacity:1"
       id="path4168"
       d="m 270.10352,354.86523 c -0.79428,0.63802 -1.49741,1.36719 -2.10938,2.1875 -0.61198,0.82032 -1.1263,1.70573 -1.54297,2.65625 -0.40364,0.9375 -0.71614,1.92058 -0.9375,2.94922 -0.20833,1.02865 -0.3125,2.07032 -0.3125,3.125 0,1.35417 0.14974,2.66276 0.44922,3.92578 0.3125,1.25 0.77475,2.42188 1.38672,3.51563 0.61198,1.09375 1.3737,2.08334 2.28516,2.96875 0.91146,0.88542 1.97916,1.62109 3.20312,2.20703 l -5.68359,1.05469 0.19531,1.85547 9.08203,-0.74219 0.80078,-1.09375 -0.0586,-8.53516 -1.77735,-0.0977 -0.97656,5.97656 c -1.01562,-0.57291 -1.90755,-1.23698 -2.67578,-1.99219 -0.75521,-0.76823 -1.38672,-1.60156 -1.89453,-2.5 -0.50781,-0.91146 -0.89192,-1.875 -1.15234,-2.89062 -0.2474,-1.02865 -0.3711,-2.09636 -0.3711,-3.20313 0,-0.91146 0.0977,-1.80989 0.29297,-2.69531 0.20833,-0.88541 0.50131,-1.73177 0.87891,-2.53906 0.3776,-0.8073 0.83333,-1.56251 1.36718,-2.26563 0.54688,-0.71614 1.15886,-1.36067 1.83594,-1.93359 l -2.28515,-1.9336 z" />
  </g>
</svg>
