<?xml version="1.0" encoding="UTF-8" standalone="no"?>
<!-- Generator: Adobe Illustrator 16.0.0, SVG Export Plug-In . SVG Version: 6.00 Build 0)  -->

<svg
   xmlns:dc="http://purl.org/dc/elements/1.1/"
   xmlns:cc="http://creativecommons.org/ns#"
   xmlns:rdf="http://www.w3.org/1999/02/22-rdf-syntax-ns#"
   xmlns:svg="http://www.w3.org/2000/svg"
   xmlns="http://www.w3.org/2000/svg"
   xmlns:sodipodi="http://sodipodi.sourceforge.net/DTD/sodipodi-0.dtd"
   xmlns:inkscape="http://www.inkscape.org/namespaces/inkscape"
   version="1.1"
   x="10px"
   y="20px"
   width="35"
   height="35"
   xml:space="preserve"
   id="svg2"
   inkscape:version="0.91 r13725"
   sodipodi:docname="menunew.svg"><metadata
     id="metadata11"><rdf:RDF><cc:Work
         rdf:about=""><dc:format>image/svg+xml</dc:format><dc:type
           rdf:resource="http://purl.org/dc/dcmitype/StillImage" /><dc:title></dc:title></cc:Work></rdf:RDF></metadata><defs
     id="defs9" /><sodipodi:namedview
     pagecolor="#ffffff"
     bordercolor="#666666"
     borderopacity="1"
     objecttolerance="10"
     gridtolerance="10"
     guidetolerance="10"
     inkscape:pageopacity="0"
     inkscape:pageshadow="2"
     inkscape:window-width="1600"
     inkscape:window-height="837"
     id="namedview7"
     showgrid="false"
     fit-margin-top="0"
     fit-margin-left="0"
     fit-margin-right="0"
     fit-margin-bottom="0"
     inkscape:zoom="4"
     inkscape:cx="3.1655669"
     inkscape:cy="40.575073"
     inkscape:window-x="-8"
     inkscape:window-y="-8"
     inkscape:window-maximized="1"
     inkscape:current-layer="Icons" /><g
     id="Icons"
     style="opacity:0.75"
     transform="matrix(2.5,0,0,2.6923077,-12.5,-13.461539)"><path
       id="menu"
       d="m 6,15 12,0 c 0.553,0 1,0.447 1,1 l 0,1 c 0,0.553 -0.447,1 -1,1 L 6,18 C 5.447,18 5,17.553 5,17 l 0,-1 c 0,-0.553 0.447,-1 1,-1 z m -1,-4 0,1 c 0,0.553 0.447,1 1,1 l 12,0 c 0.553,0 1,-0.447 1,-1 l 0,-1 c 0,-0.553 -0.447,-1 -1,-1 L 6,10 C 5.447,10 5,10.447 5,11 Z M 5,6 5,7 c 0,0.553 0.447,1 1,1 l 12,0 c 0.553,0 1,-0.447 1,-1 L 19,6 C 19,5.447 18.553,5 18,5 L 6,5 C 5.447,5 5,5.447 5,6 Z"
       inkscape:connector-curvature="0"
       style="fill:#ffffff;fill-opacity:1" /></g><g
     id="Guides"
     style="display:none"
     transform="translate(10e-7,-15)" /></svg>